<mxfile host="app.diagrams.net" modified="2022-03-29T12:55:22.092Z" agent="5.0 (Windows NT 10.0; Win64; x64) AppleWebKit/537.36 (KHTML, like Gecko) Chrome/99.0.4844.82 Safari/537.36" etag="t1kkNNnAa9hyYzKaGn8u" version="17.2.4" type="github">
  <diagram id="vu7wfTjyb9Lu2uMAuVfj" name="Page-1">
    <mxGraphModel dx="955" dy="972" grid="1" gridSize="10" guides="1" tooltips="1" connect="1" arrows="1" fold="1" page="1" pageScale="1" pageWidth="827" pageHeight="1169" math="1" shadow="0">
      <root>
        <mxCell id="0" />
        <mxCell id="1" parent="0" />
        <mxCell id="zcL69S-o5Tlq5ZiflKfG-2" value="НАЧАЛО" style="ellipse;whiteSpace=wrap;html=1;" vertex="1" parent="1">
          <mxGeometry x="128.5" y="80" width="100" height="60" as="geometry" />
        </mxCell>
        <mxCell id="zcL69S-o5Tlq5ZiflKfG-6" value="" style="edgeStyle=none;rounded=0;orthogonalLoop=1;jettySize=auto;html=1;" edge="1" parent="1" source="zcL69S-o5Tlq5ZiflKfG-7" target="zcL69S-o5Tlq5ZiflKfG-9">
          <mxGeometry relative="1" as="geometry" />
        </mxCell>
        <mxCell id="zcL69S-o5Tlq5ZiflKfG-7" value="S" style="shape=parallelogram;perimeter=parallelogramPerimeter;whiteSpace=wrap;html=1;fixedSize=1;" vertex="1" parent="1">
          <mxGeometry x="119.75" y="620" width="117.5" height="50" as="geometry" />
        </mxCell>
        <mxCell id="zcL69S-o5Tlq5ZiflKfG-8" style="edgeStyle=none;rounded=0;orthogonalLoop=1;jettySize=auto;html=1;exitX=0.5;exitY=1;exitDx=0;exitDy=0;" edge="1" parent="1" source="zcL69S-o5Tlq5ZiflKfG-7" target="zcL69S-o5Tlq5ZiflKfG-7">
          <mxGeometry relative="1" as="geometry" />
        </mxCell>
        <mxCell id="zcL69S-o5Tlq5ZiflKfG-9" value="ВЫХОД" style="ellipse;whiteSpace=wrap;html=1;" vertex="1" parent="1">
          <mxGeometry x="120" y="700" width="120" height="60" as="geometry" />
        </mxCell>
        <mxCell id="zcL69S-o5Tlq5ZiflKfG-10" value="Вариант 1 &lt;br&gt;&lt;div&gt;&lt;img src=&quot;data:image/png;base64,iVBORw0KGgoAAAANSUhEUgAAAIMAAABTCAIAAAAzwSMeAAAABmJLR0QA/wD/AP+gvaeTAAAFQklEQVR4nO2d4ZmjIBCGh3uuGrGcxS0nWs7KliO0w/2QRFBQFNSB8/u1RwwYXmaAYfSIUgoeIdCfu2/gkdZDAoseElhUBgneENLweQkhxC52FqKRyltDSwGAUgqsn0p7BrQdxj8+HzgL8Sh3EqOG1iLx6XPzE2chIpXhnWwJKaGq6OffUgpPISaVSCJPlUiCVpU15KuKegoxqUQSUFEq+K8AAPHLBWPMW4hJd09UseqtHn3Pw+OSyizxFaIRUU/cCYeK9E5Z6iGBRQ8JLMqLxCdwdIZuDkblRaJk5UWCvVpzP/aOIx3X0OLZ36VYCl8q9wYiQX03bzLysgkAANabA5k3se59Zme3KT8SAPQ1GIbBm7qLCqvSL5YABW9I3H3kSAJmhiHaOsowaFVF3QxvUqy8MiUBQF8/lpOKGZAVDTEK0dXLRnhDCGfz2csl3mzQunWWipX1++NXUhtNrU3pPdu+AePU0KG8ScyXoWctf7aPW0NIrNeTOwl1gWEMLQ0Z70Ft++2iABJnG0ZQKkgoCT/WIkicySLEINQOEl6zKISEOstJBYLYQ8JjZNmuYhdKusX41PPLBWVfm4tcIWV4pYwx4Hxxe/uHCWZZhhHvpIaWblWz3EiELaEW1e4iEXBj++z0BKV0UkG/94hcfeQiMVm5cXWow9x/cWqlm71PG1RDSxc1L0hMrZu7yv1JvbfmnqYxjNNMQt+gXfWMhLvxY716a0q2ZRgHWTi6K5UcRgFbF6jjXXpzdnzs7O3ujERaOr5pFcsbQupWAIi2tqK8nHOgdB441of7+jLR1cvIsGe1dpVYn/IU4wQJYS59JxKst0axvTqb5fOKrtahYM45AG++4WfxnVGu7PiRm1fJ+szeYoxJsWhl7eyco9+1adGnZhWlIHlTcza8XJsfX9yfvlZN3l3ZIRnHe+x1pNrrUsr/Gn8LKfc1Tb8YbVvoFbq860naPVquKkKEkAPfUgHJx6ZNSCFgmc0ecbYohdsfXOWd3gkHtB2Ocpg712Pzc0hLBgn3zOy+ofELzTesTcpeG7vIO4muHjn8pHN352ki4e03xthsmgfQk/bw+qIUpBTvX23JbWNXSXTfrYjhcNwZTDa/at6zYb+ywrU+sh/tnC7VqxPHN2/dTmhvFNX+2s5uZf89xSb8PbC2s1uPseQZ7Yhsfy3aYXeIh5m/D1aiHZsxlnwigIk4qB0RQDeJoaWeb69EAMNTE7BHxf3e8mBdIUBdI28tLccTFR+HEMaHAPcrJQflQaFNzmxjQWI9Oyr+pAi7krmlj9xudtGT9oRgeKWhZY5B4Zx1CyKRnoPyoFj2pGEDs0cygheVpZB4//7kTtaBwlHUs3CHWHSWTeLpwdZ8CMctDIvOPHNMoUk167yoHWvJ2Zhnc1DKnpHfXMzdQug5a8EZyqdNDwvZMYwZ+jASBWftX8dBtxZjeBsPYORMIqVbGpneurvNNi9WP3Sa6PBBCrGIUl+sTEmk5XBnBsqkG+3xqJJPD6fszvcqPxKpOWB5E1puJNJkaDh1Yyhfqdxm7Ph3Q+BVTiRE153J4eb3lj5vZMSinGyibP2HJJb/RQIK/VckxoywTqLMCMyXxPgAR8NnT3I439qoPxuzQH9w5lP/3b4EpXjDmeqBNA2BXinWkE4KAH3Sf/fdHVGuNsH6ngkpgfXvzR66l+fvVK4kwHplPuf8kwq94p1QK2MSUggdx+acU1rpiKorenRijCSdrg6vJJNxJqyDeNsRvNRvOE2pZ4+NRRl7p8L0kMCihwQWPSSw6CGBRQ8JLHpIYNE/uyUVpUaxHosAAAAASUVORK5CYII=&quot; alt=&quot;&quot;&gt;&lt;br&gt;&lt;/div&gt;" style="strokeWidth=2;html=1;shape=mxgraph.flowchart.annotation_2;align=left;labelPosition=right;pointerEvents=1;" vertex="1" parent="1">
          <mxGeometry x="340" y="30" width="50" height="100" as="geometry" />
        </mxCell>
        <mxCell id="zcL69S-o5Tlq5ZiflKfG-11" value="" style="endArrow=none;dashed=1;html=1;dashPattern=1 3;strokeWidth=2;rounded=0;exitX=1;exitY=0.5;exitDx=0;exitDy=0;entryX=0.52;entryY=0.512;entryDx=0;entryDy=0;entryPerimeter=0;" edge="1" parent="1" source="zcL69S-o5Tlq5ZiflKfG-2" target="zcL69S-o5Tlq5ZiflKfG-10">
          <mxGeometry width="50" height="50" relative="1" as="geometry">
            <mxPoint x="312" y="240" as="sourcePoint" />
            <mxPoint x="362" y="190" as="targetPoint" />
          </mxGeometry>
        </mxCell>
        <mxCell id="zcL69S-o5Tlq5ZiflKfG-12" value="S=0, I=0&lt;br&gt;&lt;br&gt;выполнять&amp;nbsp;&lt;br&gt;&lt;br&gt;&amp;nbsp; &amp;nbsp; I=I+1&lt;br&gt;&lt;br&gt;&lt;span style=&quot;font-size: 12px&quot;&gt;&amp;nbsp; &amp;nbsp; S=S+&lt;/span&gt;&lt;span&gt;(1/(I!)^2)&lt;/span&gt;&lt;br&gt;&lt;br&gt;пока I&amp;lt;=100&amp;nbsp;&lt;br&gt;&lt;span&gt;	&lt;/span&gt;&lt;span&gt;	&lt;/span&gt;&lt;br&gt;вывод (S)&amp;nbsp; &amp;nbsp; &amp;nbsp; &amp;nbsp;" style="strokeWidth=2;html=1;shape=mxgraph.flowchart.annotation_2;align=left;labelPosition=right;pointerEvents=1;verticalAlign=top;fontSize=14;spacing=2;spacingBottom=0;spacingLeft=0;spacingTop=0;horizontal=1;" vertex="1" parent="1">
          <mxGeometry x="340" y="165" width="50" height="195" as="geometry" />
        </mxCell>
        <mxCell id="zcL69S-o5Tlq5ZiflKfG-13" value="" style="endArrow=none;dashed=1;html=1;dashPattern=1 3;strokeWidth=2;rounded=0;exitX=1;exitY=0.5;exitDx=0;exitDy=0;entryX=0.52;entryY=0.512;entryDx=0;entryDy=0;entryPerimeter=0;" edge="1" parent="1" source="zcL69S-o5Tlq5ZiflKfG-2" target="zcL69S-o5Tlq5ZiflKfG-12">
          <mxGeometry width="50" height="50" relative="1" as="geometry">
            <mxPoint x="549.5" y="195" as="sourcePoint" />
            <mxPoint x="682" y="255" as="targetPoint" />
          </mxGeometry>
        </mxCell>
        <mxCell id="zcL69S-o5Tlq5ZiflKfG-28" style="edgeStyle=orthogonalEdgeStyle;rounded=0;orthogonalLoop=1;jettySize=auto;html=1;exitX=0.5;exitY=1;exitDx=0;exitDy=0;" edge="1" parent="1">
          <mxGeometry relative="1" as="geometry">
            <mxPoint x="178" y="320" as="sourcePoint" />
            <mxPoint x="178.5" y="340" as="targetPoint" />
          </mxGeometry>
        </mxCell>
        <mxCell id="zcL69S-o5Tlq5ZiflKfG-15" value="Да" style="endArrow=classic;html=1;rounded=0;exitX=0.5;exitY=1;exitDx=0;exitDy=0;" edge="1" parent="1" source="zcL69S-o5Tlq5ZiflKfG-17">
          <mxGeometry x="-0.9329" width="50" height="50" relative="1" as="geometry">
            <mxPoint x="180" y="510" as="sourcePoint" />
            <mxPoint x="178" y="250" as="targetPoint" />
            <Array as="points">
              <mxPoint x="178" y="550" />
              <mxPoint x="60" y="550" />
              <mxPoint x="60" y="250" />
            </Array>
            <mxPoint as="offset" />
          </mxGeometry>
        </mxCell>
        <mxCell id="zcL69S-o5Tlq5ZiflKfG-16" value="Нет" style="endArrow=classic;html=1;rounded=0;exitX=1;exitY=0.5;exitDx=0;exitDy=0;entryX=0.5;entryY=0;entryDx=0;entryDy=0;" edge="1" parent="1" source="zcL69S-o5Tlq5ZiflKfG-17" target="zcL69S-o5Tlq5ZiflKfG-7">
          <mxGeometry x="-0.2651" width="50" height="50" relative="1" as="geometry">
            <mxPoint x="499.5" y="590" as="sourcePoint" />
            <mxPoint x="179.5" y="590" as="targetPoint" />
            <Array as="points">
              <mxPoint x="280" y="450" />
              <mxPoint x="280" y="570" />
              <mxPoint x="179" y="570" />
            </Array>
            <mxPoint as="offset" />
          </mxGeometry>
        </mxCell>
        <mxCell id="zcL69S-o5Tlq5ZiflKfG-17" value="I&amp;lt;=100" style="rhombus;whiteSpace=wrap;html=1;" vertex="1" parent="1">
          <mxGeometry x="138" y="410" width="80" height="80" as="geometry" />
        </mxCell>
        <mxCell id="zcL69S-o5Tlq5ZiflKfG-21" value="S=0, I=0" style="rounded=0;whiteSpace=wrap;html=1;" vertex="1" parent="1">
          <mxGeometry x="123.75" y="180" width="109.5" height="40" as="geometry" />
        </mxCell>
        <mxCell id="zcL69S-o5Tlq5ZiflKfG-23" value="" style="endArrow=classic;html=1;rounded=0;exitX=0.5;exitY=1;exitDx=0;exitDy=0;" edge="1" parent="1" source="zcL69S-o5Tlq5ZiflKfG-21">
          <mxGeometry width="50" height="50" relative="1" as="geometry">
            <mxPoint x="390" y="440" as="sourcePoint" />
            <mxPoint x="178.125" y="280" as="targetPoint" />
          </mxGeometry>
        </mxCell>
        <mxCell id="zcL69S-o5Tlq5ZiflKfG-24" value="" style="endArrow=classic;html=1;rounded=0;" edge="1" parent="1" target="zcL69S-o5Tlq5ZiflKfG-17">
          <mxGeometry width="50" height="50" relative="1" as="geometry">
            <mxPoint x="178" y="360" as="sourcePoint" />
            <mxPoint x="440" y="390" as="targetPoint" />
          </mxGeometry>
        </mxCell>
        <mxCell id="zcL69S-o5Tlq5ZiflKfG-25" value="" style="endArrow=classic;html=1;rounded=0;exitX=0.5;exitY=1;exitDx=0;exitDy=0;" edge="1" parent="1" source="zcL69S-o5Tlq5ZiflKfG-2" target="zcL69S-o5Tlq5ZiflKfG-21">
          <mxGeometry width="50" height="50" relative="1" as="geometry">
            <mxPoint x="390" y="440" as="sourcePoint" />
            <mxPoint x="440" y="390" as="targetPoint" />
          </mxGeometry>
        </mxCell>
        <mxCell id="zcL69S-o5Tlq5ZiflKfG-30" value="&lt;div style=&quot;text-align: left&quot;&gt;&lt;span&gt;S=S+&lt;span style=&quot;font-size: 14px&quot;&gt;(1/(I!)^2)&lt;/span&gt;&lt;/span&gt;&lt;/div&gt;" style="whiteSpace=wrap;html=1;" vertex="1" parent="1">
          <mxGeometry x="127.5" y="340" width="101" height="40" as="geometry" />
        </mxCell>
        <mxCell id="zcL69S-o5Tlq5ZiflKfG-31" value="I=I+1" style="whiteSpace=wrap;html=1;" vertex="1" parent="1">
          <mxGeometry x="128" y="280" width="101" height="40" as="geometry" />
        </mxCell>
      </root>
    </mxGraphModel>
  </diagram>
</mxfile>
